<?xml version="1.0" encoding="UTF-8"?><!DOCTYPE svg PUBLIC "-//W3C//DTD SVG 1.1//EN" "http://www.w3.org/Graphics/SVG/1.1/DTD/svg11.dtd"><svg xmlns="http://www.w3.org/2000/svg" xmlns:xlink="http://www.w3.org/1999/xlink" version="1.1" id="Layer_1" x="0px" y="0px" width="130px" height="130px" viewBox="0 0 130 130" xml:space="preserve"><path fill="#0893FC" d="M105.135 10.223L92.313 2.879a9.558 9.558 0 0 0-1.8-1.032l-.191-.108-.008.017C86.865.353 82.41.86 77.55 3.665L38.066 26.46c-10.857 6.269-19.742 21.655-19.742 34.193v45.591c0 6.114 2.125 10.45 5.549 12.578l-.033.059 14.246 8.072 8.014-13.949 31.451-18.157c10.857-6.269 19.741-21.655 19.741-34.193V23.876l7.843-13.653z"/><path fill="#1A76FC" d="M105.135 10.223L91.412 7.005c-.562-.409-3.365-.399-4.002-.677l-1.018-.407-1.831-.341c-3.449-1.402-2.15-4.721-7.01-1.916L38.066 26.46c-10.857 6.269-19.742 21.655-19.742 34.193v45.591c0 6.114 2.125 10.45 5.549 12.578l-.033.059 14.246 8.072 8.014-13.949 31.451-18.157c10.857-6.269 19.741-21.655 19.741-34.193V23.876l7.843-13.653z"/><path fill="#0B61F9" d="M19.077 54.084c-.479 2.232-.753 4.443-.753 6.569v45.591c0 6.114 2.125 10.45 5.549 12.578l-.033.059 14.246 8.072 8.014-13.949 31.451-18.157c1.845-1.065 3.627-2.411 5.324-3.945L19.077 54.084z"/><path fill="#2E508E" d="M51.636 34.329C40.78 40.598 31.895 55.984 31.895 68.522v45.591c0 12.538 8.885 17.666 19.741 11.398l39.485-22.796c10.857-6.269 19.74-21.655 19.74-34.193v-45.59c0-12.538-8.883-17.666-19.74-11.398L51.636 34.329z"/><path fill="#254077" d="M110.861 22.932c0-12.538-8.883-17.666-19.74-11.398L51.636 34.329C40.78 40.598 31.895 55.984 31.895 68.522v45.591c0 12.538 8.885 17.666 19.741 11.398"/><path fill="#0D88F7" d="M42.866 129c-7.16 0-11.786-5.844-11.786-14.887V68.522c0-12.829 9.039-28.485 20.148-34.897l39.485-22.796c3.2-1.848 6.289-2.784 9.179-2.784 7.158 0 11.783 5.844 11.783 14.887v45.591c0 12.829-9.037 28.485-20.148 34.898l-39.484 22.795c-3.201 1.847-6.287 2.784-9.177 2.784zM99.893 9.674c-2.601 0-5.415.863-8.365 2.564L52.043 35.033c-10.66 6.156-19.334 21.179-19.334 33.489v45.591c0 8.178 3.891 13.259 10.156 13.259h.001c2.601 0 5.413-.864 8.362-2.565l39.485-22.795c10.66-6.155 19.334-21.179 19.334-33.489V22.932c.001-8.178-3.891-13.258-10.154-13.258z"/><path fill="#EEF9FF" d="M102.728 53.646c.032-.481.059-.961.075-1.438.02-.51.03-1.016.031-1.516v-.494l-.002-.073-.002-.147-.002-.147v-.062a14.158 14.158 0 0 1-.005-.206v-.002a43.17 43.17 0 0 0-.064-1.544c-.028-.46-.067-.91-.11-1.355-.004-.046-.006-.093-.011-.137-.305-3.032-.958-5.729-1.917-8.061l-.023-.056-.021-.054c-1.475-3.545-3.704-6.363-6.688-8.171a5.964 5.964 0 0 0-.107-.063l-.023-.014-.137-.081a.178.178 0 0 1-.03-.017l-.104-.061c-.017-.009-.032-.018-.048-.025l-.089-.05c-.021-.011-.041-.021-.062-.034l-.073-.038c-.023-.014-.047-.025-.071-.038-.021-.01-.042-.022-.062-.033l-.089-.045c-.015-.008-.027-.015-.042-.021-.035-.019-.073-.036-.109-.056l-.016-.007c-2.009-.998-4.205-1.505-6.521-1.559-.029-.002-.058-.002-.088-.003h-.016c-4.189-.078-8.942 1.308-13.979 4.327-3.86 2.314-7.55 5.393-10.945 8.998l-.059.062c-.54.575-1.07 1.164-1.596 1.766-.051.059-.104.114-.156.174a71.485 71.485 0 0 0-1.695 2.032l-.014.018c-.027.033-.055.067-.082.103a72.972 72.972 0 0 0-4.461 6.243l-.016.023c-6.914 10.806-11.324 23.671-11.293 35.11.051 18.219 11.353 26.548 26.026 20.349l-.041-15.136-.022-8.14-6.681 4.005-.202.121-.026-9.515 6.884-4.125-.02-7.018c-.002-.478.012-.949.039-1.417l.002.002c.381-6.639 3.549-12.359 8.227-15.975.002-.003.006-.005.01-.008l.103-.078.024-.02.09-.068.042-.03.084-.062.045-.034.079-.057c.018-.014.035-.025.055-.039.025-.019.051-.037.076-.057l.054-.036c.024-.019.05-.036.075-.054l.061-.043.07-.049.061-.041c.024-.018.049-.034.073-.05l.062-.043.071-.048.063-.041.07-.047.068-.044.066-.044.076-.049a.875.875 0 0 1 .057-.035l.093-.059.046-.029.096-.059a.581.581 0 0 1 .042-.025l.138-.084c2.917-1.749 5.422-2.99 6.158-3.316l.023 8.509-4.226 2.538c-3.308 1.982-3.946 4.243-3.938 6.995l.018 6.077 7.896-4.734-1.004 10.132-.037.022-6.83 4.095.001.227.048 17.737.015 5.422a52.105 52.105 0 0 0 3.819-3.158l.004-.005a59.63 59.63 0 0 0 3.453-3.396l.213-.23a65.06 65.06 0 0 0 1.373-1.524l.305-.349a66.05 66.05 0 0 0 1.523-1.827c.008-.009.016-.018.021-.027.082-.101.163-.204.244-.306.043-.053.085-.106.127-.161l.037-.047a71.442 71.442 0 0 0 2.822-3.84l-.002-.002a77.224 77.224 0 0 0 3.788-6.121l.005.002c3.334-5.998 5.725-12.131 7.172-18.004.807-3.264 1.336-6.514 1.553-9.685.002-.032.002-.061.005-.09z"/><g><path fill="#EEF9FF" d="M76.201 79.031l.001.227.01 3.686 3.462-5.995z"/><path fill="#BCD4E8" d="M101.175 39.709c-.146-.421-.289-.847-.454-1.247l-.023-.056-.021-.054c-1.475-3.545-3.704-6.363-6.688-8.171a5.964 5.964 0 0 0-.107-.063l-.023-.014-.137-.081a.178.178 0 0 1-.03-.017l-.104-.061c-.017-.009-.032-.018-.048-.025l-.089-.05c-.021-.011-.041-.021-.062-.034l-.073-.038c-.023-.014-.047-.025-.071-.038-.021-.01-.042-.022-.062-.033l-.089-.045c-.015-.008-.027-.015-.042-.021-.035-.019-.073-.036-.109-.056l-.016-.007c-2.009-.998-4.205-1.505-6.521-1.559-.029-.002-.058-.002-.088-.003h-.016c-4.189-.078-8.942 1.308-13.979 4.327-3.86 2.314-7.55 5.393-10.945 8.998l-.059.062c-.54.575-1.07 1.164-1.596 1.766-.051.059-.104.114-.156.174a71.485 71.485 0 0 0-1.695 2.032l-.014.018c-.027.033-.055.067-.082.103a72.972 72.972 0 0 0-4.461 6.243l-.016.023C46.385 62.59 41.975 75.455 42.006 86.894c.042 15.217 7.936 23.526 19.084 22.242l6.915-11.976-.014-5.054-.022-8.14-6.681 4.005-.202.121-.026-9.515 6.884-4.125-.02-7.018c-.002-.478.012-.949.039-1.417l.002.002c.381-6.639 3.549-12.359 8.227-15.975.002-.003.006-.005.01-.008l.103-.078.024-.02.09-.068.042-.03.084-.062.045-.034.079-.057c.018-.014.035-.025.055-.039.025-.019.051-.037.076-.057l.054-.036c.024-.019.05-.036.075-.054l.061-.043.07-.049.061-.041c.024-.018.049-.034.073-.05l.062-.043.071-.048.063-.041.07-.047.068-.044.066-.044.076-.049a.875.875 0 0 1 .057-.035l.093-.059.046-.029.096-.059a.581.581 0 0 1 .042-.025l.138-.084c2.917-1.749 5.422-2.99 6.158-3.316l.023 8.509-4.226 2.538c-3.308 1.982-3.946 4.243-3.938 6.995l.018 6.077 7.896-4.734-.545 5.492 17.647-30.563z"/></g><metadata><rdf:RDF xmlns:rdf="http://www.w3.org/1999/02/22-rdf-syntax-ns#" xmlns:rdfs="http://www.w3.org/2000/01/rdf-schema#" xmlns:dc="http://purl.org/dc/elements/1.1/"><rdf:Description about="https://iconscout.com/legal#licenses" dc:title="facebook" dc:description="facebook" dc:publisher="Iconscout" dc:date="2018-01-30" dc:format="image/svg+xml" dc:language="en"><dc:creator><rdf:Bag><rdf:li>Roundicons.com</rdf:li></rdf:Bag></dc:creator></rdf:Description></rdf:RDF></metadata></svg>