<?xml version="1.0" encoding="UTF-8"?><!DOCTYPE svg PUBLIC "-//W3C//DTD SVG 1.1//EN" "http://www.w3.org/Graphics/SVG/1.1/DTD/svg11.dtd"><svg xmlns="http://www.w3.org/2000/svg" xmlns:xlink="http://www.w3.org/1999/xlink" version="1.1" id="Layer_1" x="0px" y="0px" width="130px" height="130px" viewBox="0 0 130 130" xml:space="preserve"><path fill="#075493" d="M105.133 10.223l-12.82-7.344a9.504 9.504 0 0 0-1.801-1.032l-.189-.108-.008.016C86.866.353 82.411.86 77.551 3.665L38.064 26.46c-10.857 6.269-19.74 21.655-19.74 34.193v45.591c0 6.114 2.123 10.45 5.547 12.578l-.033.059 14.248 8.072 8.012-13.949 31.453-18.157c10.855-6.269 19.74-21.655 19.74-34.193V23.876l7.842-13.653z"/><path fill="#06417C" d="M105.133 10.223L91.41 7.005c-.561-.409-3.363-.398-4.002-.677l-1.017-.408-1.832-.34C81.11 4.178 82.411.859 77.551 3.664L38.064 26.46c-10.857 6.269-19.74 21.655-19.74 34.193v45.591c0 6.114 2.123 10.45 5.547 12.578l-.033.059 14.248 8.072 8.012-13.949 31.453-18.157c10.855-6.269 19.74-21.655 19.74-34.193V23.876l7.842-13.653z"/><path fill="#053C68" d="M19.076 54.085c-.479 2.231-.752 4.442-.752 6.568v45.591c0 6.114 2.123 10.45 5.547 12.578l-.033.059 14.248 8.072 8.012-13.949 31.453-18.157c1.844-1.065 3.627-2.411 5.322-3.945L19.076 54.085z"/><g fill="#055BAF"><path d="M51.635 34.329c-10.857 6.269-19.742 21.655-19.742 34.193v45.591c0 12.538 8.885 17.666 19.742 11.398l39.484-22.796c10.857-6.269 19.742-21.655 19.742-34.193v-45.59c0-12.538-8.885-17.666-19.742-11.398L51.635 34.329z"/><path d="M42.865 129h-.002c-7.158 0-11.783-5.844-11.783-14.887V68.522c0-12.829 9.037-28.485 20.146-34.897l39.486-22.796c3.201-1.848 6.289-2.784 9.178-2.784 7.158 0 11.785 5.844 11.785 14.887v45.591c0 12.829-9.039 28.485-20.148 34.897l-39.486 22.796C48.84 128.063 45.754 129 42.865 129zM99.891 9.674c-2.6 0-5.414.863-8.363 2.564L52.041 35.033c-10.66 6.156-19.334 21.179-19.334 33.489v45.591c0 8.178 3.891 13.259 10.156 13.259h.002c2.6 0 5.412-.864 8.361-2.565l39.486-22.795c10.66-6.155 19.334-21.179 19.334-33.489V22.932c.001-8.178-3.89-13.258-10.155-13.258z"/></g><g><path fill="#FFFCF3" d="M99.748 44.971l-8.955 5.172c1.459 1.147 1.744 4.548 1.75 6.818.039 13.816-9.727 30.7-21.764 37.65-12.025 6.94-21.854 1.373-21.895-12.443-.006-2.271.377-6.106 1.549-8.726l-8.971 5.181.109 38.641c.004 1.438 1.01 2.011 2.246 1.298l53.807-31.066c1.236-.714 2.236-2.446 2.23-3.884l-.106-38.641"/><path fill="#EDA71D" d="M87.385 29.211c-.686.835-1.146 1.945-1.143 2.909l.02 7.734c.004 1 .504 1.579 1.229 1.587l-.035-12.184-.071-.046"/><path fill="#EF8A1B" d="M87.455 29.258l.035 12.184c.305.003.652-.093 1.02-.306l6.73-3.887c.633-.364 1.201-.994 1.607-1.711l-9.392-6.28"/><path fill="#EA6F1C" d="M95.203 24.369l-6.73 3.886a4.059 4.059 0 0 0-1.088.956l.07.047 9.393 6.28c.389-.689.627-1.46.625-2.154l-.023-7.735c-.005-1.42-1.009-1.993-2.247-1.28"/><path fill="#5AA6D1" d="M60.984 63.93c-2.52 4.325-4.072 9.204-4.061 13.596.025 8.757 6.211 12.262 13.828 7.865 3.83-2.211 7.285-5.988 9.779-10.309l-.854-.487c-2.301 3.988-5.482 7.469-9.002 9.501-7.051 4.071-12.77.796-12.793-7.307-.012-4.042 1.406-8.529 3.705-12.515l-.602-.344"/><path fill="#4285B2" d="M70.662 53.766c-3.781 2.184-7.197 5.904-9.678 10.164l.604.345c2.297-3.982 5.48-7.464 9.004-9.498 7.037-4.062 12.77-.795 12.793 7.29.01 4.051-1.406 8.542-3.707 12.528l.854.487c2.477-4.294 4-9.124 3.988-13.487-.026-8.721-6.225-12.237-13.858-7.829"/><path fill="#13D1BA" d="M70.592 54.776c-3.523 2.034-6.707 5.516-9.004 9.498-2.299 3.985-3.717 8.473-3.705 12.515.023 8.103 5.742 11.378 12.793 7.307 3.52-2.032 6.701-5.513 9.002-9.501 2.301-3.986 3.717-8.478 3.707-12.528.021 8.101-5.672 17.966-12.709 22.029l-.016-5.247c-3.068 1.772-5.746 1.369-7.154-.699-.008-.008-.014-.017-.02-.025-.023-.032-.045-.068-.068-.102l-.041-.068c-.014-.023-.027-.046-.043-.069l-.049-.087c-.012-.021-.023-.043-.035-.061-.02-.037-.039-.071-.057-.11a.256.256 0 0 1-.023-.044c-.02-.037-.037-.076-.057-.115a2.54 2.54 0 0 1-.025-.051c-.018-.041-.035-.081-.055-.122l-.016-.04c-.02-.045-.037-.089-.055-.133-.004-.014-.012-.027-.018-.043l-.053-.138c-.002-.015-.01-.028-.014-.042-.016-.043-.029-.089-.045-.132l-.02-.059-.039-.131-.018-.06a2.391 2.391 0 0 1-.033-.128c-.008-.021-.014-.043-.02-.065-.012-.045-.021-.089-.033-.133a.706.706 0 0 0-.016-.066c-.008-.042-.018-.083-.025-.126-.006-.026-.01-.054-.018-.081a4.142 4.142 0 0 1-.037-.204c-.008-.044-.014-.089-.02-.133a2.903 2.903 0 0 1-.032-.216c-.004-.023-.006-.051-.012-.077-.004-.048-.008-.097-.014-.144l-.008-.073c-.006-.056-.008-.11-.014-.166 0-.018-.004-.034-.004-.054-.006-.065-.008-.129-.012-.194-.002-.011-.002-.021-.002-.032a8.972 8.972 0 0 1-.012-.466v-.007c-.002-.035 0-.066 0-.1v-.126c.002-.071.004-.144.008-.215V73.7c.107-2.905 1.311-6.113 3.137-8.806l.059-.088c.029-.039.057-.081.086-.122a5.74 5.74 0 0 1 .113-.159l.033-.049a17.846 17.846 0 0 1 2.293-2.633l.172-.156a.27.27 0 0 1 .037-.03l.152-.14a.808.808 0 0 0 .047-.039c.049-.043.096-.082.143-.125a.589.589 0 0 0 .055-.044l.141-.116.062-.051c.041-.035.086-.068.127-.103.023-.02.051-.037.074-.058.041-.033.084-.064.127-.096.023-.02.049-.037.074-.059l.123-.09c.025-.019.051-.035.074-.057.047-.029.092-.063.137-.095.021-.015.043-.031.066-.044.047-.033.096-.069.145-.101.02-.013.035-.026.055-.036.055-.037.109-.073.166-.109l.039-.023c.066-.043.135-.085.201-.126l.002-.001c.068-.042.137-.083.205-.123h.002l.002-.002-.008-5.243"/><path fill="#0FAAA6" d="M70.592 54.776l.016 5.246c.027-.014.053-.031.078-.045l.117-.064c4.365-2.405 7.898-.393 8.014 4.565l.002.135v.091c0 .08 0 .16-.002.242 0 .08-.002.159-.006.24 0 .013-.004.029-.004.046 0 .064-.006.129-.008.194a.775.775 0 0 0-.004.068 4.23 4.23 0 0 0-.014.171c-.002.028-.004.058-.008.087a2.08 2.08 0 0 1-.014.157 7.3 7.3 0 0 0-.012.101c-.006.046-.008.095-.014.14-.004.037-.01.073-.016.107-.004.048-.012.095-.018.141-.004.038-.01.076-.016.11a2.903 2.903 0 0 1-.02.139l-.018.105c-.01.05-.016.099-.025.148-.006.034-.012.069-.02.104-.006.049-.016.094-.025.144-.006.037-.014.071-.021.107l-.029.145c-.008.037-.016.072-.021.109l-.035.149c-.006.032-.014.063-.021.094-.014.056-.025.114-.041.171-.008.027-.012.055-.02.083l-.045.173c-.008.025-.014.051-.02.076-.018.062-.033.123-.053.183-.006.024-.012.049-.02.073l-.053.186a1.15 1.15 0 0 0-.023.07c-.016.058-.035.117-.053.176l-.031.092c-.014.048-.029.101-.047.149l-.039.115c-.016.044-.029.087-.045.129-.018.051-.033.099-.051.147-.01.028-.021.058-.029.086-.025.066-.051.132-.074.197a.319.319 0 0 0-.014.035c-1.393 3.688-4.062 7.181-7.133 8.953l.016 5.247c7.037-4.063 12.73-13.929 12.709-22.029-.021-8.083-5.753-11.349-12.79-7.288"/><path fill="#02EFDA" d="M63.506 78.149c1.408 2.068 4.086 2.472 7.154.699v-.017c0 .002-.004.002-.006.005-2.094 1.209-4.189 1.496-5.789.581-.545-.31-1-.738-1.359-1.268m-.088-.127l.068.102c-.023-.032-.045-.069-.068-.102m-.084-.137c.016.023.029.046.043.069-.014-.023-.027-.046-.043-.069m-.084-.148c.012.018.023.039.035.061-.012-.022-.023-.043-.035-.061m-.162-.32l.025.051-.025-.051m-.07-.162l.016.04-.016-.04m-.073-.176c.006.016.014.029.018.043-.004-.014-.012-.028-.018-.043m-.066-.18c.004.014.012.027.014.042-.002-.014-.01-.028-.014-.042m-.065-.19l.02.059-.02-.059m-.056-.19l.018.06-.018-.06m-.053-.194c.006.022.012.044.02.065a.617.617 0 0 1-.02-.065m-.092-.406c.008.027.012.055.018.081-.006-.026-.01-.054-.018-.081m-.037-.204c.006.025.01.051.014.077-.004-.026-.008-.052-.014-.077m-.062-.426c.006.026.008.054.012.077-.005-.023-.006-.051-.012-.077m-.022-.217l.008.073-.008-.073m-.017-.219c0 .02.004.036.004.054 0-.018-.004-.035-.004-.054m-.014-.227c0 .012 0 .021.002.032-.002-.011-.002-.02-.002-.032m-.012-.473v.002-.002"/><path fill="#02E1CF" d="M77.793 69.896a19.528 19.528 0 0 1-1.354 2.84c-1.592 2.76-3.684 4.887-5.779 6.097v.017c3.07-1.774 5.74-5.267 7.133-8.954m.088-.233c-.025.066-.051.131-.074.197.023-.065.048-.131.074-.197m.08-.233c-.018.051-.033.101-.051.147l.051-.147m.084-.244l-.039.115.039-.115m.078-.242l-.031.092c.012-.031.021-.06.031-.092m.076-.246a1.15 1.15 0 0 0-.023.07l.023-.07m.072-.259c-.006.024-.012.049-.02.073a.464.464 0 0 0 .02-.073m.073-.258c-.008.025-.014.051-.02.076a.941.941 0 0 1 .02-.076m.064-.256c-.008.027-.012.055-.02.083.008-.029.012-.056.02-.083m.063-.265c-.006.032-.014.063-.021.094.007-.03.015-.062.021-.094m.056-.259c-.008.037-.016.072-.021.109l.021-.109m.051-.252c-.006.037-.014.071-.021.107.007-.035.015-.069.021-.107m.045-.248c-.006.034-.012.069-.02.104.008-.034.014-.069.02-.104m.043-.254l-.018.105.018-.105m.115-.981c-.002.028-.004.058-.008.087.004-.029.006-.059.008-.087m.03-.479a.292.292 0 0 0-.004.046c0-.017.004-.034.004-.046m.007-.486v.003-.003"/><path fill="#02E1CF" d="M62.449 74.054c0 .033-.002.064 0 .1-.002-.036 0-.067 0-.1m.008-.341c-.004.071-.006.144-.008.215a7.72 7.72 0 0 1 .008-.215m3.137-8.817c-1.826 2.692-3.029 5.9-3.137 8.806.088-2.31.877-4.993 2.373-7.581.24-.427.498-.835.764-1.225m.144-.21c-.029.041-.057.083-.086.122.03-.039.057-.081.086-.122m.147-.208l-.033.049c.009-.018.021-.032.033-.049M68.387 61.658l-.037.03c.011-.011.023-.019.037-.03m.199-.179a.808.808 0 0 1-.047.039c.016-.011.031-.025.047-.039m.197-.168a.589.589 0 0 1-.055.044c.02-.014.038-.03.055-.044m.203-.167l-.062.051c.019-.018.043-.036.062-.051m.202-.161c-.023.021-.051.038-.074.058.023-.02.05-.037.074-.058m.201-.154c-.025.021-.051.039-.074.059.023-.02.048-.039.074-.059m.197-.146c-.023.021-.049.038-.074.057.025-.02.05-.036.074-.057m.203-.139c-.023.013-.045.029-.066.044.021-.015.043-.031.066-.044m.199-.137c-.02.01-.035.023-.055.036.02-.012.036-.026.055-.036m.205-.133a.397.397 0 0 1-.039.023c.014-.007.026-.016.039-.023m.203-.127l-.002.001.002-.001m.211-.125s-.002 0-.002.002v-.002"/><path fill="#01C7C1" d="M78.818 64.613v0m-8.015-4.7c2.029-1.115 4.045-1.36 5.598-.475 1.555.885 2.359 2.738 2.416 5.04-.116-4.957-3.649-6.97-8.014-4.565m-.196.109c.027-.014.053-.031.078-.045-.025.014-.05.032-.078.045"/><path fill="#07CBBF" d="M77.91 69.577a1.24 1.24 0 0 0-.029.086c.008-.028.019-.058.029-.086m.096-.276c-.016.044-.029.087-.045.129.016-.042.029-.085.045-.129M78.176 68.769c-.016.058-.035.117-.053.176.018-.059.037-.119.053-.176m.076-.256l-.053.186c.018-.063.035-.127.053-.186m.072-.256c-.018.062-.033.123-.053.183.02-.06.036-.122.053-.183m.065-.249l-.045.173c.015-.058.029-.116.045-.173m.06-.254c-.014.056-.025.114-.041.171.016-.057.028-.115.041-.171m.057-.243l-.035.149.035-.149m.098-.505c-.006.049-.016.094-.025.144.009-.05.019-.095.025-.144m.044-.253c-.01.05-.016.099-.025.148.01-.049.016-.098.025-.148M78.719 66.258c-.004.048-.012.095-.018.141.006-.046.014-.093.018-.141m.029-.247c-.006.046-.008.095-.014.14.006-.046.008-.094.014-.14m.025-.258c-.006.052-.008.105-.014.157.007-.052.012-.105.014-.157m.022-.258c-.006.055-.01.115-.014.171a4.23 4.23 0 0 1 .014-.171m.012-.263c0 .064-.006.129-.008.194.002-.065.008-.129.008-.194m.011-.528c0 .081 0 .162-.002.242.002-.082.002-.162.002-.242m-.002-.225l.002.135-.002-.135"/><path fill="#01F6E4" d="M70.635 69.426l-5.77 9.992c1.6.915 3.695.628 5.789-.581.002-.003.006-.003.006-.005l-.025-9.406"/><path fill="#01EDDD" d="M75.188 73.073c-.596.344-1.076.069-1.08-.615-.002-.684.477-1.512 1.074-1.857.58-.336 1.076-.068 1.078.616.002.683-.49 1.521-1.072 1.856m-2.278-2.465c-.219.125-.408.033-.408-.234-.002-.251.188-.56.404-.686.219-.125.395-.025.395.226a.869.869 0 0 1-.391.694m5.908-5.907l-8.184 4.725.025 9.406c2.096-1.21 4.188-3.337 5.779-6.097a19.583 19.583 0 0 0 1.368-2.875c.023-.066.049-.131.074-.197.008-.028.02-.059.029-.086.018-.047.033-.097.051-.147.016-.042.029-.085.045-.129l.039-.115.047-.149c.012-.031.021-.061.031-.092.018-.059.037-.118.053-.176l.023-.07.053-.186c.008-.024.014-.049.02-.073.02-.06.035-.121.053-.183.006-.025.012-.051.02-.076l.045-.173c.008-.028.012-.056.02-.083.016-.057.027-.115.041-.171a.92.92 0 0 0 .021-.094l.035-.149c.006-.037.014-.072.021-.109l.029-.145c.008-.036.016-.07.021-.107.01-.05.02-.095.025-.144.008-.035.014-.07.02-.104.01-.05.016-.099.025-.148a11.193 11.193 0 0 0 .038-.244c.006-.034.012-.072.016-.11.006-.046.014-.093.018-.141.006-.034.012-.07.016-.107.006-.045.008-.094.014-.14l.012-.101c.006-.052.008-.105.014-.157.004-.029.006-.059.008-.087.004-.056.008-.116.014-.171 0-.021.002-.047.004-.068.002-.065.008-.13.008-.194a4.835 4.835 0 0 0 .01-.286c.002-.08.002-.161.002-.242-.003-.002-.003-.004-.003-.005"/><path fill="#00DDD2" d="M76.4 59.438l-5.766 9.987 8.184-4.725v-.088l-.002-.135c-.056-2.3-.861-4.154-2.416-5.039"/><path fill="#09DBC7" d="M63.486 78.124c.006.009.012.018.02.025-.008-.007-.014-.016-.02-.025m-.109-.17l.041.068-.041-.068m-.092-.156l.049.087a6.772 6.772 0 0 0-.049-.087m-.092-.171c.018.039.037.073.057.11a3.889 3.889 0 0 1-.057-.11m-.08-.159c.02.039.037.078.057.115-.02-.037-.037-.076-.057-.115m-.08-.173c.02.041.037.081.055.122-.018-.041-.035-.081-.055-.122m-.07-.173c.018.044.035.088.055.133a2.889 2.889 0 0 1-.055-.133m-.07-.181l.053.138a4.413 4.413 0 0 1-.053-.138m-.059-.173c.016.043.029.089.045.132l-.045-.132m-.059-.19l.039.131-.039-.131M62.672 76.192c.012.044.021.088.033.133-.012-.045-.021-.089-.033-.133M62.631 76c.008.043.018.084.025.126L62.631 76m-.041-.208l.023.127-.023-.127m-.033-.21c.006.044.012.089.02.133a1.525 1.525 0 0 1-.02-.133m-.032-.216c.006.047.012.094.02.139-.008-.045-.014-.092-.02-.139m-.025-.22c.006.047.01.096.014.144-.004-.049-.008-.098-.014-.144m-.021-.24c.006.056.008.11.014.166-.007-.055-.009-.11-.014-.166m-.016-.248c.004.065.006.129.012.194-.006-.065-.008-.128-.012-.194m-.014-.503v.005a9 9 0 0 0 0-.005m0-.227v0m.008-.227v0m3.195-8.893l-.059.088.059-.088M68.35 61.688l-.172.156.172-.156m.189-.169c-.051.045-.102.093-.152.14l.152-.14m.19-.165c-.047.043-.094.082-.143.125.049-.042.096-.082.143-.125m.195-.16l-.141.116.141-.116m.189-.153c-.041.034-.086.067-.127.103.041-.036.086-.069.127-.103m.201-.153c-.043.031-.086.062-.127.096a2.82 2.82 0 0 1 .127-.096m.198-.149l-.123.09c.039-.03.082-.058.123-.09m.211-.151c-.045.031-.09.065-.137.095.047-.03.092-.064.137-.095m.211-.145c-.049.031-.098.067-.145.101.047-.033.096-.069.145-.101M70.395 60.148c-.066.041-.135.083-.201.126.066-.043.134-.085.201-.126m.207-.124a11.109 11.109 0 0 0 .004 0h-.004"/><path fill="#07BBB6" d="M70.686 59.978l.117-.064a6.757 6.757 0 0 0-.117.064"/><path fill="#01F3E1" d="M70.635 69.426l-8.186 4.728v.002a9.051 9.051 0 0 0 .014.503c.004.065.006.129.012.194 0 .02.004.036.004.054.006.056.008.11.014.166l.008.073c.006.047.01.096.014.144.006.026.008.054.012.077.006.047.012.094.02.139a.513.513 0 0 0 .012.077c.006.044.012.089.02.133a8.846 8.846 0 0 1 .037.204c.008.027.012.055.018.081.008.043.018.084.025.126a.706.706 0 0 1 .016.066c.012.044.021.088.033.133.006.022.012.044.02.065.01.044.021.086.033.128l.018.06.039.131.02.059.045.132c.004.014.012.027.014.042l.053.138c.006.015.014.029.018.043.018.044.035.088.055.133l.016.04c.02.041.037.081.055.122l.025.051c.02.039.037.078.057.115a3.889 3.889 0 0 0 .08.154c.012.018.023.039.035.061l.049.087c.016.023.029.046.043.069l.041.068c.023.032.045.069.068.102.006.009.012.018.02.025a4.08 4.08 0 0 0 1.359 1.269l5.764-9.994"/><path fill="#01E7D8" d="M67.348 70.558c-1.484.854-2.68.173-2.688-1.514-.002-1.688 1.186-3.765 2.67-4.621 1.467-.847 2.664-.148 2.668 1.54.006 1.686-1.184 3.746-2.65 4.595m3.257-10.534c-.07.04-.139.081-.209.123l-.002.001c-.066.041-.135.083-.201.126-.014.007-.025.016-.039.023a6.799 6.799 0 0 0-.166.109c-.02.01-.035.023-.055.036-.049.031-.098.067-.145.101-.023.013-.045.029-.066.044-.045.031-.09.065-.137.095-.023.021-.049.037-.074.057-.041.031-.084.06-.123.09-.025.02-.051.039-.074.059-.043.031-.086.062-.127.096-.023.021-.051.038-.074.058-.041.034-.086.067-.127.103-.02.016-.043.033-.062.051l-.141.116c-.018.015-.035.03-.055.044-.047.043-.094.082-.143.125a.808.808 0 0 1-.047.039l-.152.14-.037.03-.172.156a17.733 17.733 0 0 0-2.293 2.633c-.012.018-.023.031-.033.049a5.74 5.74 0 0 0-.113.159c-.029.041-.057.083-.086.122l-.059.088c-.266.391-.523.799-.764 1.225-1.496 2.588-2.285 5.271-2.373 7.581v.012c-.004.072-.006.144-.008.215v.126c0 .033-.002.064 0 .1l8.186-4.728-.027-9.403c0-.003-.002-.003-.002-.001"/><path fill="#00D2CC" d="M70.607 60.022l.027 9.403 5.766-9.987c-1.553-.886-3.568-.641-5.598.475l-.117.064c-.025.014-.05.032-.078.045"/><path fill="#F0FFFD" d="M67.33 64.423c-1.484.856-2.672 2.933-2.67 4.621.008 1.687 1.203 2.368 2.688 1.514 1.467-.849 2.656-2.908 2.65-4.595-.004-1.689-1.201-2.387-2.668-1.54"/><path fill="#F0FFFD" d="M72.906 69.688c-.217.126-.406.435-.404.686 0 .268.189.359.408.234a.87.87 0 0 0 .391-.694c0-.251-.176-.351-.395-.226"/><path fill="#F0FFFD" d="M75.182 70.601c-.598.346-1.076 1.174-1.074 1.857.004.685.484.959 1.08.615.582-.335 1.074-1.173 1.072-1.856-.002-.685-.498-.952-1.078-.616"/><path fill="#055BAF" d="M70.779 94.611c12.037-6.95 21.803-23.834 21.764-37.65-.006-2.271-.291-5.671-1.75-6.818l8.955-5.172.107 38.641c.006 1.438-.994 3.17-2.23 3.884l-53.807 31.066c-1.236.713-2.242.141-2.246-1.298l-.109-38.641 8.971-5.181c-1.172 2.619-1.555 6.454-1.549 8.726.041 13.816 9.869 19.384 21.894 12.443M60.984 63.93c2.48-4.26 5.896-7.98 9.678-10.164 7.633-4.407 13.832-.892 13.857 7.829.012 4.363-1.512 9.193-3.988 13.487-2.494 4.32-5.949 8.098-9.779 10.309-7.617 4.396-13.803.892-13.828-7.865-.012-4.392 1.541-9.271 4.06-13.596m26.401-34.719a4.01 4.01 0 0 1 1.088-.956l6.73-3.886c1.238-.713 2.242-.14 2.246 1.279l.023 7.735c.002.694-.236 1.465-.625 2.154-.406.717-.975 1.347-1.607 1.711l-6.73 3.887c-.367.213-.715.309-1.02.306-.725-.008-1.225-.587-1.229-1.587l-.02-7.734c-.003-.964.458-2.074 1.144-2.909m10.48-16.702L43.17 44.087c-4.709 2.719-8.521 9.304-8.506 14.717l.18 62.879c.014 5.414 3.852 7.568 8.561 4.848l54.693-31.578c4.711-2.72 8.508-9.279 8.492-14.692l-.178-62.881c-.016-5.412-3.836-7.591-8.547-4.871"/></g><metadata><rdf:RDF xmlns:rdf="http://www.w3.org/1999/02/22-rdf-syntax-ns#" xmlns:rdfs="http://www.w3.org/2000/01/rdf-schema#" xmlns:dc="http://purl.org/dc/elements/1.1/"><rdf:Description about="https://iconscout.com/legal#licenses" dc:title="instagram" dc:description="instagram" dc:publisher="Iconscout" dc:date="2018-01-30" dc:format="image/svg+xml" dc:language="en"><dc:creator><rdf:Bag><rdf:li>Roundicons.com</rdf:li></rdf:Bag></dc:creator></rdf:Description></rdf:RDF></metadata></svg>