<svg xmlns="http://www.w3.org/2000/svg" id="Layer_1" data-name="Layer 1" viewBox="0 0 128 128">
    <defs>
        <style>
            .cls-1 {
                fill: #b6e5ff
            }

            .cls-5 {
                fill: none
            }

            .cls-5,
            .cls-6,
            .cls-7 {
                stroke-miterlimit: 10
            }

            .cls-5 {
                stroke-width: 2px
            }

            .cls-3 {
                fill: #86c1db
            }

            .cls-5 {
                stroke: #b6e5ff
            }

            .cls-6,
            .cls-7 {
                fill: #ffd297;
                stroke: #cc9246;
                stroke-linecap: round;
                stroke-width: 4px
            }

            .cls-7 {
                fill: #ffc954
            }

            .cls-11 {
                fill: #99947e
            }
        </style>
    </defs>
    <circle class="cls-1" cx="65" cy="60" r="60" fill="#b6e5ff" />
    <path class="cls-1" d="M117 17a9.94 9.94 0 00-4.29 1A16 16 0 0081 21v.26A8 8 0 1079 37h38a10 10 0 000-20z"
        fill="#b6e5ff" />
    <circle cx="34" cy="8" r="5" fill="none" stroke="#fff" stroke-linecap="square" stroke-miterlimit="10"
        stroke-width="2" />
    <path class="cls-3"
        d="M118.08 64.79l-.21-.56-.57-.1a1.18 1.18 0 00-1.11.48 3.71 3.71 0 01-1.06.82c.55-1 1.08-2.08 1.31-2.55 1.9-3.88 1.78-4.19 1.64-4.59l-.22-.56-.57-.1a1.14 1.14 0 00-1.1.48 3.71 3.71 0 01-.7.62c.21-.53.4-1 .52-1.35 1.39-3.76 1.21-4.26 1.1-4.56a1 1 0 00-.81-.68 1.15 1.15 0 00-1.12.47c.09-.91.14-1.76.17-2.18.26-4.35 0-4.63-.71-4.88a1 1 0 00-.61 0c-.08-.57-.16-1-.21-1.33a26 26 0 00-.73-3.29c.45-2.53 1.3-5.9 2.09-6.7a1 1 0 00-1.41-1.41c-1.21 1.21-2 4.64-2.48 6.83-.48-1.9-1.23-4-2.32-4.76V28a1 1 0 00-2 0v6.86c-1.08.81-1.83 2.86-2.32 4.76-.43-2.19-1.27-5.62-2.48-6.83a1 1 0 00-1.41 1.41c.79.79 1.65 4.16 2.09 6.7a26 26 0 00-.73 3.29c0 .28-.13.76-.21 1.33a1 1 0 00-.61 0c-.69.25-1 .53-.71 4.88 0 .42.08 1.27.17 2.18a1.15 1.15 0 00-1.12-.47 1 1 0 00-.81.68c-.11.3-.29.8 1.1 4.56.12.34.31.82.52 1.35a3.71 3.71 0 01-.7-.62 1.14 1.14 0 00-1.1-.48l-.59.12-.2.54c-.14.39-.26.7 1.64 4.59.23.47.76 1.54 1.31 2.55a3.71 3.71 0 01-1.06-.82 1.18 1.18 0 00-1.11-.48l-.58.11-.2.54c-.15.41-.25.68 1.66 4.35a36.29 36.29 0 002.54 4.32 4 4 0 002.72 1.41h.36a4 4 0 001.81-.44V96a1 1 0 002 0V74.45a4 4 0 001.81.44h.36a4 4 0 002.72-1.41 36.26 36.26 0 002.54-4.32c1.95-3.69 1.85-3.96 1.7-4.37z"
        fill="#86c1db" />
    <path
        d="M117 12a9.94 9.94 0 00-4.29 1A16 16 0 0081 16v.26A8 8 0 1079 32h38a10 10 0 000-20zM50.43 29.08a7.52 7.52 0 00-3.25.74 12.11 12.11 0 00-24 2.29v.2a6.05 6.05 0 10-1.52 11.91h28.77a7.57 7.57 0 100-15.14z"
        fill="#eefaff" />
    <path class="cls-3"
        d="M68.08 53.79l-.21-.56-.57-.1a1.18 1.18 0 00-1.11.48 3.71 3.71 0 01-1.06.82c.55-1 1.08-2.08 1.31-2.55 1.9-3.88 1.78-4.19 1.64-4.59l-.22-.56-.57-.1a1.14 1.14 0 00-1.1.48 3.71 3.71 0 01-.7.62c.21-.53.4-1 .52-1.35 1.39-3.76 1.21-4.26 1.1-4.56a1 1 0 00-.81-.68 1.15 1.15 0 00-1.12.47c.09-.91.14-1.76.17-2.18.26-4.35 0-4.63-.71-4.88a1 1 0 00-.61 0c-.08-.57-.16-1-.21-1.33a26 26 0 00-.73-3.29c.45-2.53 1.3-5.9 2.09-6.7a1 1 0 00-1.41-1.41c-1.21 1.21-2 4.64-2.48 6.83-.48-1.9-1.23-4-2.32-4.76V17a1 1 0 00-2 0v6.86c-1.08.81-1.83 2.86-2.32 4.76-.43-2.19-1.27-5.62-2.48-6.83a1 1 0 00-1.41 1.41c.79.79 1.65 4.16 2.09 6.7a26 26 0 00-.73 3.29c0 .28-.13.76-.21 1.33a1 1 0 00-.61 0c-.69.25-1 .53-.71 4.88 0 .42.08 1.27.17 2.18a1.15 1.15 0 00-1.12-.47 1 1 0 00-.81.68c-.11.3-.29.8 1.1 4.56.12.34.31.82.52 1.35a3.71 3.71 0 01-.7-.62 1.14 1.14 0 00-1.1-.48l-.59.12-.2.54c-.14.39-.26.7 1.64 4.59.23.47.76 1.54 1.31 2.55a3.71 3.71 0 01-1.06-.82 1.18 1.18 0 00-1.11-.48l-.58.11-.2.54c-.15.41-.25.68 1.66 4.35a36.29 36.29 0 002.54 4.32 4 4 0 002.72 1.41h.36a4 4 0 001.86-.38V85a1 1 0 002 0V63.45a4 4 0 001.81.44h.36a4 4 0 002.72-1.41 36.26 36.26 0 002.54-4.32c1.9-3.69 1.8-3.96 1.65-4.37z"
        fill="#86c1db" />
    <path class="cls-5"
        d="M101.12 9.88A3 3 0 0096 12h0a3 3 0 00-5.12-2.12A2.86 2.86 0 0091 14l5 6 5-6a2.86 2.86 0 00.12-4.12z"
        fill="none" stroke-miterlimit="10" stroke-width="2" stroke="#b6e5ff" />
    <path class="cls-6" stroke-miterlimit="10" fill="#ffd297" stroke="#cc9246" stroke-linecap="round" stroke-width="4"
        d="M36.16 91.84l72.83-72.83m1.42 9.9s10.61-7.78 14.85-7.78m-26.17-3.54S106.87 7 106.87 2.75m6.36 12.02l10.61-10.61" />
    <path class="cls-7" d="M106.16 30.32a6 6 0 01-8.49-8.49c2.34-2.34 13.44-9.19 15.56-7.07s-4.72 13.24-7.07 15.56z"
        stroke-miterlimit="10" stroke="#cc9246" stroke-linecap="round" stroke-width="4" fill="#ffc954" />
    <path class="cls-7" d="M96.17 33.51a6 6 0 01-9.83-6.88c1.9-2.71 16-12.38 14.09-9.66-3.43 4.9-2.36 13.82-4.26 16.54z"
        stroke-miterlimit="10" stroke="#cc9246" stroke-linecap="round" stroke-width="4" fill="#ffc954" />
    <path class="cls-7"
        d="M94.49 31.83a6 6 0 006.88 9.83c2.71-1.9 12.38-16 9.66-14.09-4.9 3.43-13.82 2.36-16.54 4.26zm-6.43 7.74a6 6 0 11-10.88-5.07c1.4-3 12.89-15.68 11.49-12.67-2.53 5.43.79 14.74-.61 17.74z"
        stroke-miterlimit="10" stroke="#cc9246" stroke-linecap="round" stroke-width="4" fill="#ffc954" />
    <path class="cls-7"
        d="M88.43 39.94a6 6 0 105.07 10.88c3-1.4 15.68-12.89 12.67-11.49-5.43 2.53-14.74-.79-17.74.61zM73.66 53.86a6 6 0 11-12-1C62 49.51 68 32.68 67.66 36c-.52 6 6.29 14.56 6 17.86z"
        stroke-miterlimit="10" stroke="#cc9246" stroke-linecap="round" stroke-width="4" fill="#ffc954" />
    <path class="cls-7"
        d="M75.14 54.34a6 6 0 001 12C79.49 66 96.32 60 93 60.34c-6 .52-14.56-6.29-17.86-6zm6.3-9.26a6 6 0 01-12-1c.29-3.3 7.66-18.72 7.37-15.42-.48 5.94 4.92 13.12 4.63 16.42z"
        stroke-miterlimit="10" stroke="#cc9246" stroke-linecap="round" stroke-width="4" fill="#ffc954" />
    <path class="cls-7"
        d="M82.92 46.56a6 6 0 101 12c3.3-.29 18.72-7.66 15.42-7.37-5.94.48-13.12-4.92-16.42-4.63zM65.17 63.35a6 6 0 01-12-1c.29-3.3 5.54-19.42 5.25-16.12-.47 5.93 7.04 13.77 6.75 17.12z"
        stroke-miterlimit="10" stroke="#cc9246" stroke-linecap="round" stroke-width="4" fill="#ffc954" />
    <path class="cls-7" d="M66.65 62.83a6 6 0 001 12c3.3-.29 19.42-5.54 16.12-5.25-5.93.47-13.77-7.04-17.12-6.75z"
        stroke-miterlimit="10" stroke="#cc9246" stroke-linecap="round" stroke-width="4" fill="#ffc954" />
    <path d="M114 88.87C114 112.64 92.51 114 66 114s-48-1.36-48-25.13S39.49 44 66 44s48 21.1 48 44.87z"
        fill="#e2ddbf" />
    <path
        d="M66 44c-26.51 0-48 21.1-48 44.87S39.49 114 66 114s48-1.36 48-25.13S92.51 44 66 44zm37 58c-4 3-16 0-23 5s-26 2-28 0-19-2-19-2-14-11-8-16 8-23 10-24c0 0 2-8 8-8s16-6 16-6 11-3 19 1 17 9 17 9 11 7 10 14 2 24-2 27z"
        fill="#f4f0df" />
    <path
        d="M40 80H18a40 40 0 00-1 8.87A25.2 25.2 0 0019.67 101H24a3 3 0 016 0 3 3 0 016 0 3 3 0 016 0 3 3 0 016 0 3 3 0 016 0 3 3 0 016 0 3 3 0 016 0 3 3 0 016 0 3 3 0 016 0 3 3 0 016 0 3 3 0 016 0 3 3 0 016 0 3 3 0 016 0 3 3 0 016 0 3 3 0 013.61-2.94 28.11 28.11 0 001.39-9.19c0-.7 0-1.39-.06-2.08A54 54 0 0097 83c-29-3-57-3-57-3z"
        fill="#bcb79f" />
    <circle class="cls-11" cx="70" cy="104" r="4" fill="#99947e" />
    <circle class="cls-11" cx="70" cy="71" r="4" fill="#99947e" />
    <circle class="cls-11" cx="40" cy="71" r="4" fill="#99947e" />
    <circle class="cls-11" cx="50" cy="98" r="4" fill="#99947e" />
    <circle class="cls-11" cx="86" cy="62" r="3" fill="#99947e" />
    <circle class="cls-11" cx="53" cy="62" r="3" fill="#99947e" />
    <circle class="cls-11" cx="91" cy="104" r="3" fill="#99947e" />
    <path d="M114 88.87C114 112.64 92.51 114 66 114s-48-1.36-48-25.13S39.49 44 66 44s48 21.1 48 44.87z" fill="none"
        stroke-width="4" stroke="#7a4d2d" stroke-linejoin="round" />
    <path
        d="M97 76c-29-3-57-3-57-3H15l4 21h5a3 3 0 016 0 3 3 0 016 0 3 3 0 016 0 3 3 0 016 0 3 3 0 016 0 3 3 0 016 0 3 3 0 016 0 3 3 0 016 0 3 3 0 016 0 3 3 0 016 0 3 3 0 016 0 3 3 0 016 0 3 3 0 016 0 3 3 0 016 0 3 3 0 016 0 3 3 0 016 0h5s1-15-28-18z"
        fill="#c5d8e2" />
    <path d="M84 76c-29-3-37-3-37-3H12v8a8.66 8.66 0 018.09 5l2.64-7H47s8 0 37-3z" fill="#e6f0f4" />
    <path
        d="M14.1 82.5C19 85.92 20 94 20 94h4a3 3 0 016 0 3 3 0 016 0 3 3 0 016 0 3 3 0 016 0 3 3 0 016 0 3 3 0 016 0 3 3 0 016 0 3 3 0 016 0 3 3 0 016 0 3 3 0 016 0 3 3 0 016 0 3 3 0 016 0 3 3 0 016 0 3 3 0 016 0 3 3 0 016 0 3 3 0 016 0h5s1-15-28-18-57-3-57-3H13.75"
        fill="none" stroke-linecap="round" stroke-width="4" stroke-linejoin="round" stroke="#a5b2bf" />
    <rect x="2" y="114" width="124" height="12" rx="4" ry="4" fill="#9b6736" />
    <path
        d="M15 114H6a4 4 0 00-3 1.39v9.23A4 4 0 006 126h9zm13 0h12v12H28zm25 0h12v12H53zm24 0h12v12H77zm25 0h12v12h-12z"
        fill="#925a27" />
    <rect x="2" y="114" width="124" height="12" rx="4" ry="4" fill="none" stroke-miterlimit="10" stroke-width="4"
        stroke="#7f4f2b" />
    <path class="cls-6" stroke-miterlimit="10" fill="#ffd297" stroke="#cc9246" stroke-linecap="round" stroke-width="4"
        d="M35.58 124.5L13.02 24m9.12 4.1s-.89-13.1 1.38-16.71M6.53 31.6S5 27.67 3 23.84m8.71-5.7L8.42 3.5" />
    <path class="cls-7" d="M21.07 32.44a6 6 0 11-11.71 2.63c-.73-3.23-.58-16.27 2.35-16.93s8.63 11.07 9.36 14.3z"
        stroke-miterlimit="10" stroke="#cc9246" stroke-linecap="round" stroke-width="4" fill="#ffc954" />
    <path class="cls-7"
        d="M18.41 42.58A6 6 0 117.34 47.2c-1.28-3.06-1.9-20.13-.62-17.08 2.28 5.54 10.41 9.4 11.69 12.46z"
        stroke-miterlimit="10" stroke="#cc9246" stroke-linecap="round" stroke-width="4" fill="#ffc954" />
    <path class="cls-7"
        d="M16.09 43.1a6 6 0 0012-.55c-.15-3.31-6.89-19-6.73-15.71.26 6-5.42 12.95-5.27 16.26zm3.1 9.58a6 6 0 11-10.1 6.47C7.3 56.37 2.74 39.88 4.53 42.67c3.24 5.05 12.87 7.22 14.66 10.01z"
        stroke-miterlimit="10" stroke="#cc9246" stroke-linecap="round" stroke-width="4" fill="#ffc954" />
    <path class="cls-7"
        d="M19.7 52.57a6 6 0 0011.9 1.54c.4-3.29-2.5-20.11-2.92-16.86-.77 5.95-8.55 12.03-8.98 15.32zM22.71 72a6 6 0 01-7.28 9.54c-2.63-2-13.66-16-11-14C9.17 71.1 20.08 69.95 22.71 72z"
        stroke-miterlimit="10" stroke="#cc9246" stroke-linecap="round" stroke-width="4" fill="#ffc954" />
    <path class="cls-7"
        d="M24.75 71.5A6 6 0 1035.41 77c1.52-2.94 5.5-20.35 4-17.41-2.78 5.35-13.13 8.97-14.66 11.91zm-4.44-10.28A6 6 0 1113 70.76c-2.63-2-11.71-16.49-9.08-14.48 4.8 3.65 13.75 2.93 16.39 4.94z"
        stroke-miterlimit="10" stroke="#cc9246" stroke-linecap="round" stroke-width="4" fill="#ffc954" />
    <path class="cls-7"
        d="M22.35 60.77A6 6 0 0033 66.28c1.52-2.94 3.54-19.91 2-17-2.73 5.36-11.13 8.54-12.65 11.49zm2.99 22.9a6 6 0 01-7.28 9.54c-2.63-2-13.45-15.07-10.81-13.06 4.75 3.63 15.46 1.51 18.09 3.52z"
        stroke-miterlimit="10" stroke="#cc9246" stroke-linecap="round" stroke-width="4" fill="#ffc954" />
    <path class="cls-7"
        d="M27.38 83.21A6 6 0 1038 88.72c1.52-2.94 5.71-19.37 4.19-16.43-2.71 5.33-13.29 7.98-14.81 10.92z"
        stroke-miterlimit="10" stroke="#cc9246" stroke-linecap="round" stroke-width="4" fill="#ffc954" />
    <path class="cls-5" fill="none" stroke-miterlimit="10" stroke-width="2" stroke="#b6e5ff" d="M0 100h10m-5 5V95" />
</svg>