<?xml version="1.0" encoding="UTF-8"?><!DOCTYPE svg PUBLIC "-//W3C//DTD SVG 1.1//EN" "http://www.w3.org/Graphics/SVG/1.1/DTD/svg11.dtd"><svg xmlns="http://www.w3.org/2000/svg" xmlns:xlink="http://www.w3.org/1999/xlink" version="1.1" id="Layer_1" x="0px" y="0px" width="130px" height="130px" viewBox="0 0 130 130" xml:space="preserve"><path fill="#19ADF7" d="M105.133 10.223l-12.82-7.344a9.504 9.504 0 0 0-1.801-1.032l-.189-.108-.008.016C86.866.353 82.411.86 77.551 3.665L38.064 26.46c-10.857 6.269-19.74 21.655-19.74 34.193v45.591c0 6.114 2.123 10.45 5.547 12.578l-.033.059 14.248 8.072 8.012-13.949 31.453-18.157c10.855-6.269 19.74-21.655 19.74-34.193V23.876l7.842-13.653z"/><path fill="#0E91E2" d="M105.133 10.223L91.41 7.005c-.561-.409-3.363-.398-4.002-.677l-1.017-.408-1.832-.34C81.11 4.178 82.411.859 77.551 3.664L38.064 26.46c-10.857 6.269-19.74 21.655-19.74 34.193v45.591c0 6.114 2.123 10.45 5.547 12.578l-.033.059 14.248 8.072 8.012-13.949 31.453-18.157c10.855-6.269 19.74-21.655 19.74-34.193V23.876l7.842-13.653z"/><path fill="#097ACE" d="M19.076 54.085c-.479 2.231-.752 4.442-.752 6.568v45.591c0 6.114 2.123 10.45 5.547 12.578l-.033.059 14.248 8.072 8.012-13.949 31.453-18.157c1.844-1.065 3.627-2.411 5.322-3.945L19.076 54.085z"/><path fill="#30C3FC" d="M51.635 34.329c-10.857 6.269-19.742 21.655-19.742 34.193v45.591c0 12.538 8.885 17.666 19.742 11.398l39.484-22.796c10.857-6.269 19.742-21.655 19.742-34.193v-45.59c0-12.538-8.885-17.666-19.742-11.398L51.635 34.329z"/><path fill="#24AEF0" d="M110.861 22.932c0-12.538-8.885-17.666-19.742-11.398L51.635 34.329c-10.857 6.269-19.742 21.655-19.742 34.193v45.591c0 12.538 8.885 17.666 19.742 11.398"/><path fill="#50D6FF" d="M42.865 129h-.002c-7.158 0-11.783-5.844-11.783-14.887V68.522c0-12.829 9.037-28.485 20.146-34.897l39.486-22.796c3.201-1.848 6.289-2.784 9.178-2.784 7.158 0 11.785 5.844 11.785 14.887v45.591c0 12.829-9.039 28.485-20.148 34.897l-39.486 22.796C48.84 128.063 45.754 129 42.865 129zM99.891 9.674c-2.6 0-5.414.863-8.363 2.564L52.041 35.033c-10.66 6.156-19.334 21.179-19.334 33.489v45.591c0 8.178 3.891 13.259 10.156 13.259h.002c2.6 0 5.412-.864 8.361-2.565l39.486-22.795c10.66-6.155 19.334-21.179 19.334-33.489V22.932c.001-8.178-3.89-13.258-10.155-13.258z"/><g><path fill="#FFF" d="M72.207 83.725c2.426-1.399 4.4-3.126 5.889-5.148 1.457-1.963 2.16-3.729 2.154-5.385-.002-1.31-.377-2.127-1.129-2.498-.805-.379-1.861-.425-3.139-.144-1.33.3-3.137.827-5.373 1.593-3.039 1.02-5.623 1.636-7.68 1.83-2.098.199-3.795-.232-5.033-1.264-1.266-1.068-1.91-2.931-1.918-5.558-.008-2.501.66-5.15 1.965-7.851 1.307-2.691 3.211-5.311 5.676-7.756 2.422-2.422 5.311-4.606 8.582-6.494 2.615-1.511 4.912-2.488 6.838-2.926 1.926-.427 3.553-.452 4.832-.058 1.297.404 2.258 1.06 2.857 1.987.609.929.922 2.019.926 3.247.004 1.183-.391 2.492-1.189 3.897-.791 1.399-1.809 2.472-3 3.16-1.078.623-1.934.809-2.523.563-.545-.242-1.115-.768-1.758-1.627-.73-1.148-1.621-1.874-2.635-2.163-.986-.286-2.635.238-4.896 1.546-2.088 1.205-3.795 2.666-5.062 4.341-1.213 1.606-1.805 2.991-1.803 4.229.002.744.195 1.269.592 1.585.416.336 1.006.504 1.748.491a9.044 9.044 0 0 0 2.359-.319c.812-.209 2.176-.621 4.051-1.215 2.375-.795 4.551-1.396 6.469-1.809 1.961-.428 3.646-.536 5.021-.307 1.41.219 2.518.909 3.309 2.043.799 1.14 1.209 2.867 1.215 5.148.008 2.728-.684 5.621-2.033 8.583-1.348 2.954-3.336 5.831-5.932 8.55-2.566 2.686-5.639 5.084-9.141 7.105-4.203 2.427-7.727 3.618-10.492 3.557-1.963-.068-3.59-.759-4.83-2.07-1.248-1.305-1.885-2.955-1.891-4.906-.002-1.211.408-2.501 1.217-3.831.791-1.323 1.826-2.348 3.053-3.055 1-.577 1.873-.743 2.574-.473.676.265 1.256.894 1.725 1.854.529 1.043 1.094 1.852 1.691 2.4.582.529 1.402.779 2.467.732 1.054-.038 2.487-.568 4.247-1.584M58.324 40.746c-9.371 5.41-16.951 18.406-16.92 29.038.01 3.55.873 6.369 2.357 8.383a43.36 43.36 0 0 0-.568 7.003c.051 18.314 13.193 25.596 29.357 16.264a45.212 45.212 0 0 0 5.367-3.653c2.395.077 5.123-.674 8.023-2.348 9.381-5.417 16.951-18.409 16.92-29.029-.008-3.064-.646-5.606-1.783-7.521.434-2.556.66-5.069.652-7.509-.051-18.314-13.193-25.598-29.367-16.26a45.222 45.222 0 0 0-5.004 3.375c-2.618-.354-5.719.343-9.034 2.257"/></g><path fill="#C3DFED" d="M72.363 35.113a45.222 45.222 0 0 0-5.004 3.375c-2.619-.354-5.721.344-9.035 2.258-9.371 5.41-16.951 18.406-16.92 29.038.01 3.55.873 6.369 2.357 8.383a43.36 43.36 0 0 0-.568 7.003c.041 14.716 8.537 22.299 20.26 19.873l7.605-13.172c-3.596 1.907-6.65 2.846-9.105 2.791-1.963-.068-3.59-.759-4.83-2.07-1.248-1.305-1.885-2.955-1.891-4.906-.002-1.211.408-2.501 1.217-3.831.791-1.323 1.826-2.348 3.053-3.055 1-.577 1.873-.743 2.574-.473.676.265 1.256.894 1.725 1.854.529 1.043 1.094 1.852 1.691 2.4.582.529 1.402.779 2.467.732 1.055-.044 2.488-.573 4.248-1.59 2.426-1.399 4.4-3.126 5.889-5.148 1.457-1.963 2.16-3.729 2.154-5.385-.002-1.31-.377-2.127-1.129-2.498-.805-.379-1.861-.425-3.139-.144-1.33.3-3.137.827-5.373 1.593-3.039 1.02-5.623 1.636-7.68 1.83-2.098.199-3.795-.232-5.033-1.264-1.266-1.068-1.91-2.931-1.918-5.558-.008-2.501.66-5.15 1.965-7.851 1.307-2.691 3.211-5.311 5.676-7.756 2.422-2.422 5.311-4.606 8.582-6.494 2.615-1.511 4.912-2.488 6.838-2.926 1.926-.427 3.553-.452 4.832-.058 1.297.404 2.258 1.06 2.857 1.987.609.929.922 2.019.926 3.247.004 1.183-.391 2.492-1.189 3.897-.791 1.399-1.809 2.472-3 3.16-1.078.623-1.934.809-2.523.563-.545-.242-1.115-.768-1.758-1.627-.73-1.148-1.621-1.874-2.635-2.163-.986-.286-2.635.238-4.896 1.546-2.088 1.205-3.795 2.666-5.062 4.341-1.213 1.606-1.805 2.991-1.803 4.229.002.744.195 1.269.592 1.585.416.336 1.006.504 1.748.491a9.044 9.044 0 0 0 2.359-.319c.812-.209 2.176-.621 4.051-1.215 2.375-.795 4.551-1.396 6.469-1.809 1.961-.428 3.646-.536 5.021-.307 1.41.219 2.518.909 3.309 2.043.023.035.041.082.064.117l11.719-20.299c-3.979-10.756-14.907-13.837-27.757-6.418z"/><metadata><rdf:RDF xmlns:rdf="http://www.w3.org/1999/02/22-rdf-syntax-ns#" xmlns:rdfs="http://www.w3.org/2000/01/rdf-schema#" xmlns:dc="http://purl.org/dc/elements/1.1/"><rdf:Description about="https://iconscout.com/legal#licenses" dc:title="skype" dc:description="skype" dc:publisher="Iconscout" dc:date="2018-01-30" dc:format="image/svg+xml" dc:language="en"><dc:creator><rdf:Bag><rdf:li>Roundicons.com</rdf:li></rdf:Bag></dc:creator></rdf:Description></rdf:RDF></metadata></svg>