<?xml version="1.0" encoding="UTF-8"?><!DOCTYPE svg PUBLIC "-//W3C//DTD SVG 1.1//EN" "http://www.w3.org/Graphics/SVG/1.1/DTD/svg11.dtd"><svg xmlns="http://www.w3.org/2000/svg" xmlns:xlink="http://www.w3.org/1999/xlink" version="1.1" id="Layer_1" x="0px" y="0px" width="130px" height="130px" viewBox="0 0 130 130" xml:space="preserve"><path fill="#323738" d="M105.132 10.223l-12.82-7.344a9.504 9.504 0 0 0-1.801-1.032l-.189-.108-.008.016C86.865.353 82.41.86 77.55 3.665L38.064 26.46c-10.857 6.269-19.739 21.655-19.739 34.193v45.591c0 6.114 2.123 10.45 5.547 12.578l-.033.059 14.247 8.072 8.012-13.949L77.55 94.847c10.855-6.269 19.74-21.655 19.74-34.193V23.876l7.842-13.653z"/><path fill="#252B2D" d="M105.132 10.223L91.41 7.005c-.561-.409-3.363-.398-4.002-.677L86.39 5.92l-1.832-.34C81.109 4.178 82.41.859 77.55 3.664L38.064 26.46c-10.857 6.269-19.739 21.655-19.739 34.193v45.591c0 6.114 2.123 10.45 5.547 12.578l-.033.059 14.247 8.072 8.012-13.949L77.55 94.847c10.855-6.269 19.74-21.655 19.74-34.193V23.876l7.842-13.653z"/><path fill="#090C0C" d="M19.077 54.085c-.479 2.231-.752 4.442-.752 6.568v45.591c0 6.114 2.123 10.45 5.547 12.578l-.033.059 14.247 8.072 8.012-13.949L77.55 94.847c1.844-1.065 3.627-2.411 5.322-3.945L19.077 54.085z"/><path fill="#3B4142" d="M51.634 34.329c-10.857 6.269-19.742 21.655-19.742 34.193v45.591c0 12.538 8.885 17.666 19.742 11.398l39.484-22.796c10.857-6.269 19.742-21.655 19.742-34.193v-45.59c0-12.538-8.885-17.666-19.742-11.398L51.634 34.329z"/><path opacity="0.2" fill="#383E3F" d="M110.861 22.932c0-12.538-8.885-17.666-19.742-11.398L51.634 34.329c-10.857 6.269-19.742 21.655-19.742 34.193v45.591c0 12.538 8.885 17.666 19.742 11.398"/><path fill="#4F5759" d="M42.865 129h-.002c-7.158 0-11.783-5.844-11.783-14.887V68.522c0-12.829 9.037-28.485 20.146-34.897l39.486-22.796c3.201-1.848 6.289-2.784 9.178-2.784 7.158 0 11.785 5.844 11.785 14.887v45.591c0 12.829-9.039 28.485-20.148 34.897l-39.486 22.796c-3.202 1.847-6.288 2.784-9.176 2.784zM99.89 9.674c-2.6 0-5.414.863-8.363 2.564L52.041 35.033c-10.66 6.156-19.334 21.179-19.334 33.489v45.591c0 8.178 3.891 13.259 10.156 13.259h.002c2.6 0 5.412-.864 8.361-2.565l39.486-22.795c10.66-6.155 19.334-21.179 19.334-33.489V22.932c0-8.178-3.89-13.258-10.156-13.258z"/><g><path fill="#FF1F3A" d="M65.277 83.655l-.062-21.811 18.15.485-18.088 21.326m6.797-50.326c-17.02 9.826-30.779 33.66-30.725 53.219.056 19.566 13.906 27.45 30.926 17.623 17.029-9.832 30.781-33.65 30.727-53.219-.056-19.557-13.897-27.455-30.928-17.623"/></g><path fill="#C8131A" d="M72.074 33.329c-17.02 9.826-30.779 33.66-30.725 53.219.043 15.282 8.503 23.438 20.314 21.594l39.431-68.294c-4.361-11.061-15.718-14.199-29.02-6.519zm-6.797 50.326l-.062-21.811 18.15.485-18.088 21.326z"/><metadata><rdf:RDF xmlns:rdf="http://www.w3.org/1999/02/22-rdf-syntax-ns#" xmlns:rdfs="http://www.w3.org/2000/01/rdf-schema#" xmlns:dc="http://purl.org/dc/elements/1.1/"><rdf:Description about="https://iconscout.com/legal#licenses" dc:title="youtube" dc:description="youtube" dc:publisher="Iconscout" dc:date="2018-01-30" dc:format="image/svg+xml" dc:language="en"><dc:creator><rdf:Bag><rdf:li>Roundicons.com</rdf:li></rdf:Bag></dc:creator></rdf:Description></rdf:RDF></metadata></svg>