<?xml version="1.0" encoding="UTF-8"?><!DOCTYPE svg PUBLIC "-//W3C//DTD SVG 1.1//EN" "http://www.w3.org/Graphics/SVG/1.1/DTD/svg11.dtd"><svg xmlns="http://www.w3.org/2000/svg" xmlns:xlink="http://www.w3.org/1999/xlink" version="1.1" id="Layer_1" x="0px" y="0px" width="130px" height="130px" viewBox="0 0 130 130" xml:space="preserve"><path fill="#DCF1F9" d="M105.133 10.223l-12.82-7.345a9.45 9.45 0 0 0-1.801-1.032l-.189-.107-.008.016C86.866.353 82.411.859 77.551 3.664L38.065 26.459c-10.857 6.269-19.74 21.655-19.74 34.193v45.591c0 6.114 2.123 10.45 5.547 12.577l-.033.06 14.248 8.073 8.012-13.95 31.453-18.157c10.855-6.269 19.74-21.656 19.74-34.193V23.875l7.841-13.652z"/><path fill="#CCE6F2" d="M105.133 10.223L91.411 7.004c-.561-.408-3.363-.398-4.002-.678l-1.018-.406-1.832-.34C81.11 4.178 82.411.859 77.551 3.664L38.065 26.459c-10.857 6.269-19.74 21.655-19.74 34.193v45.591c0 6.114 2.123 10.45 5.547 12.577l-.033.06 14.248 8.073 8.012-13.95 31.453-18.157c10.855-6.269 19.74-21.656 19.74-34.193V23.875l7.841-13.652z"/><path fill="#BFD9E8" d="M19.077 54.084c-.479 2.232-.752 4.442-.752 6.568v45.591c0 6.114 2.123 10.45 5.547 12.577l-.033.06 14.248 8.073 8.012-13.95 31.453-18.157c1.844-1.065 3.627-2.41 5.322-3.945L19.077 54.084z"/><path fill="#FFF" d="M51.635 34.329c-10.857 6.268-19.742 21.656-19.742 34.193v45.592c0 12.537 8.885 17.666 19.742 11.396l39.484-22.795c10.857-6.268 19.742-21.655 19.742-34.193V22.93c0-12.537-8.885-17.665-19.742-11.396L51.635 34.329z"/><path opacity="0.1" fill="#5BC0D8" d="M110.862 22.93c0-12.537-8.885-17.665-19.742-11.396L51.635 34.329c-10.857 6.268-19.742 21.656-19.742 34.193v45.592c0 12.537 8.885 17.666 19.742 11.396"/><path fill="#FFF" d="M42.866 129h-.002c-7.158 0-11.783-5.843-11.783-14.886V68.522c0-12.828 9.037-28.484 20.146-34.898l39.486-22.795c3.201-1.848 6.289-2.784 9.178-2.784 7.158 0 11.785 5.844 11.785 14.886v45.592c0 12.829-9.039 28.484-20.148 34.898l-39.486 22.795C48.84 128.063 45.754 129 42.866 129zM99.891 9.672c-2.6 0-5.414.863-8.363 2.564L52.042 35.034c-10.66 6.155-19.334 21.178-19.334 33.488v45.592c0 8.178 3.891 13.258 10.156 13.258h.002c2.6 0 5.412-.863 8.361-2.564l39.486-22.797c10.66-6.154 19.334-21.178 19.334-33.488V22.93c0-8.178-3.89-13.258-10.156-13.258z"/><g><path fill="#FF7976" d="M73.423 37.555c-8.284 4.783-15.651 13.217-20.639 22.724a63.551 63.551 0 0 0-3.851 8.922l24.49-31.646"/><path fill="#E3443A" d="M73.423 37.555L48.934 69.201l9.221 2.762c1.058-4.331 3.105-8.713 5.795-12.525 2.658-3.771 5.939-6.983 9.51-9.044 3.847-2.221 7.337-2.664 10.078-1.674L91.458 35c-4.858-2.046-11.079-1.46-18.035 2.555"/><path fill="#F4D72C" d="M48.934 69.201c-1.678 4.918-2.647 9.897-2.742 14.636-.007.295-.021.586-.021.877.001.292.017.565.025.852.121 4.604 1.116 8.458 2.816 11.418l9.167-13.396-9.167 13.396-.078-27.783"/><path fill="#F7B92B" d="M48.934 69.201l.079 27.782 9.167-13.396c-.449-1.305-.715-2.812-.789-4.483-.016-.283-.032-.557-.033-.849 0-.29.014-.581.029-.881.063-1.761.328-3.584.768-5.411l-9.221-2.762"/><path fill="#59C96E" d="M58.189 83.609l-9.176 13.383 15.021-7.595c-2.694-.707-4.768-2.69-5.845-5.788"/><path fill="#40A557" d="M49.013 96.992c1.044 1.818 2.354 3.306 3.881 4.44 5.024 3.734 12.423 3.645 20.707-1.139 2.503-1.446 4.967-3.248 7.314-5.354 3.903-3.5 7.499-7.837 10.477-12.748l-8.76-2.709c-2.46 3.205-5.559 5.958-9.067 7.983-2.058 1.188-4.017 1.868-5.823 2.115-1.33.176-2.576.107-3.708-.184l-15.021 7.596"/><path fill="#0FAEF4" d="M73.531 75.342l-.016-5.549-.005-1.729 14.686-1.188-14.665 8.466m23.798-25.881L73.497 63.22l.014 4.845.005 1.729.016 5.549 14.665-8.466c-.725 4.562-2.713 8.891-5.563 12.605l8.76 2.709a57.94 57.94 0 0 0 5.785-12.777c1.556-4.963 2.44-10.201 2.425-15.548.016 5.347-.869 10.585-2.425 15.548a57.92 57.92 0 0 1-5.785 12.777l5.935-32.73"/><path fill="#4087ED" d="M98.964 48.517l-1.636.944-5.937 32.729a57.94 57.94 0 0 0 5.785-12.777c1.556-4.963 2.44-10.201 2.425-15.548a24.366 24.366 0 0 0-.637-5.348"/><path fill="#4087ED" d="M73.51 68.065l.005 1.728.016 5.549 14.665-8.466-14.686 1.189"/></g><metadata><rdf:RDF xmlns:rdf="http://www.w3.org/1999/02/22-rdf-syntax-ns#" xmlns:rdfs="http://www.w3.org/2000/01/rdf-schema#" xmlns:dc="http://purl.org/dc/elements/1.1/"><rdf:Description about="https://iconscout.com/legal#licenses" dc:title="google" dc:description="google" dc:publisher="Iconscout" dc:date="2018-01-30" dc:format="image/svg+xml" dc:language="en"><dc:creator><rdf:Bag><rdf:li>Roundicons.com</rdf:li></rdf:Bag></dc:creator></rdf:Description></rdf:RDF></metadata></svg>